<svg xmlns="http://www.w3.org/2000/svg" width="1200" height="420" viewBox="0 0 1200 420" fill="none" role="img">
  <title>The Vault</title>
  <desc>Projects, kept safe. A gentle project tracker for brains that lose track of what they love.</desc>
  <defs>
    <pattern id="grid" width="42" height="42" patternUnits="userSpaceOnUse">
      <path d="M42 0H0V42" stroke="#21262D" stroke-width="1" opacity=".66"/>
    </pattern>
    <style>
      .label { font: 700 18px 'Segoe UI', Arial, sans-serif; letter-spacing: 6px; }
      .headline { font: 800 64px 'Segoe UI', Arial, sans-serif; letter-spacing: 0; }
      .copy { font: 400 24px 'Segoe UI', Arial, sans-serif; letter-spacing: 0; }
      .micro { font: 700 14px 'Segoe UI', Arial, sans-serif; letter-spacing: 3px; }
      .dial { animation: turn 15s ease-in-out infinite; transform-origin: 925px 207px; }
      .ring { stroke-dasharray: 14 15; animation: orbit 9s linear infinite reverse; }
      .status { animation: status 3.1s ease-in-out infinite; }
      .reveal { animation: reveal 1.1s ease-out both; }
      .reveal.two { animation-delay: .16s; }
      .reveal.three { animation-delay: .32s; }
      @keyframes turn { 0%, 12% { transform: rotate(-18deg); } 42%, 58% { transform: rotate(128deg); } 88%, 100% { transform: rotate(342deg); } }
      @keyframes orbit { to { stroke-dashoffset: -232; } }
      @keyframes status { 0%, 100% { opacity: .38; } 50% { opacity: 1; } }
      @keyframes reveal { from { opacity: 0; transform: translateY(10px); } to { opacity: 1; transform: translateY(0); } }
      @media (prefers-reduced-motion: reduce) { .dial, .ring, .status, .reveal { animation: none; } }
    </style>
  </defs>

  <rect x="1" y="1" width="1198" height="418" rx="22" fill="#0D1117" stroke="#30363D" stroke-width="2"/>
  <rect x="2" y="2" width="1196" height="416" rx="21" fill="url(#grid)"/>
  <path d="M38 78H654M38 345H1162" stroke="#30363D"/>

  <g class="reveal">
    <text x="58" y="57" class="label" fill="#8B949E">THE VAULT / A VALE ATELIER PROJECT</text>
    <rect x="606" y="43" width="8" height="8" transform="rotate(45 606 43)" fill="#FF8FA3"/>
  </g>

  <g class="reveal two">
    <text x="56" y="166" class="headline" fill="#F0F6FC">PROJECTS,</text>
    <text x="56" y="239" class="headline" fill="#F0F6FC">KEPT <tspan fill="#FF8FA3">SAFE.</tspan></text>
  </g>

  <g class="reveal three">
    <text x="59" y="296" class="copy" fill="#B8C0CC">Energy-aware. Private. Kind.</text>
    <text x="59" y="328" class="copy" fill="#B8C0CC">Begin with one tiny step.</text>
  </g>

  <g>
    <rect x="752" y="78" width="346" height="260" rx="28" fill="#161B22" stroke="#484F58" stroke-width="3"/>
    <rect x="780" y="104" width="290" height="208" rx="20" stroke="#30363D" stroke-width="2"/>
    <path d="M752 126H780M752 208H780M752 290H780M1070 126H1098M1070 208H1098M1070 290H1098" stroke="#8B949E" stroke-width="5"/>

    <circle cx="925" cy="207" r="82" stroke="#484F58" stroke-width="2"/>
    <circle cx="925" cy="207" r="66" class="ring" stroke="#FF8FA3" stroke-width="3"/>
    <g class="dial">
      <circle cx="925" cy="207" r="43" fill="#0D1117" stroke="#69D3B3" stroke-width="3"/>
      <path d="M925 207V171" stroke="#F2CC60" stroke-width="7" stroke-linecap="round"/>
      <path d="M925 207L950 225" stroke="#F2CC60" stroke-width="4" stroke-linecap="round"/>
      <rect x="917" y="199" width="16" height="16" rx="3" fill="#FF8FA3"/>
    </g>

    <g class="status">
      <rect x="802" y="124" width="13" height="13" rx="3" fill="#69D3B3"/>
      <path d="M825 130H861" stroke="#69D3B3" stroke-width="2"/>
      <rect x="1035" y="277" width="13" height="13" rx="3" fill="#F2CC60"/>
      <path d="M989 283H1025" stroke="#F2CC60" stroke-width="2"/>
    </g>

    <text x="796" y="382" class="micro" fill="#8B949E">LOCAL / OPTIONAL SYNC / MCP</text>
    <path d="M1068 374H1138" stroke="#FF8FA3" stroke-width="2"/>
  </g>
</svg>
